<svg xmlns="http://www.w3.org/2000/svg" xmlns:xlink="http://www.w3.org/1999/xlink" width="400" zoomAndPan="magnify" viewBox="0 0 300 327.749992" height="437" preserveAspectRatio="xMidYMid meet" version="1.0"><defs><g/><clipPath id="30fcc90385"><path d="M 0.113281 13.652344 L 299.882812 13.652344 L 299.882812 313.425781 L 0.113281 313.425781 Z M 0.113281 13.652344 " clip-rule="nonzero"/></clipPath><clipPath id="020deb9078"><path d="M 22.597656 13.652344 L 277.402344 13.652344 C 289.820312 13.652344 299.886719 23.71875 299.886719 36.136719 L 299.886719 290.941406 C 299.886719 303.359375 289.820312 313.425781 277.402344 313.425781 L 22.597656 313.425781 C 10.179688 313.425781 0.113281 303.359375 0.113281 290.941406 L 0.113281 36.136719 C 0.113281 23.71875 10.179688 13.652344 22.597656 13.652344 Z M 22.597656 13.652344 " clip-rule="nonzero"/></clipPath></defs><g clip-path="url(#30fcc90385)"><g clip-path="url(#020deb9078)"><path fill="#004aad" d="M 0.113281 13.652344 L 299.886719 13.652344 L 299.886719 313.425781 L 0.113281 313.425781 Z M 0.113281 13.652344 " fill-opacity="1" fill-rule="nonzero"/></g></g><path stroke-linecap="butt" transform="matrix(0.749428, 0, 0, 0.749428, 50.940798, 261.181122)" fill="none" stroke-linejoin="miter" d="M 0.00081187 1.999612 L 59.822449 1.999612 " stroke="#ffffff" stroke-width="4" stroke-opacity="1" stroke-miterlimit="4"/><path stroke-linecap="butt" transform="matrix(0.749428, 0, 0, 0.749428, 204.228173, 261.181122)" fill="none" stroke-linejoin="miter" d="M -0.00214851 1.999612 L 59.819489 1.999612 " stroke="#ffffff" stroke-width="4" stroke-opacity="1" stroke-miterlimit="4"/><path stroke-linecap="butt" transform="matrix(1.561309, 0, 0, 1.561309, 91.26795, 35.51155)" fill="none" stroke-linejoin="miter" d="M 45.43064 120.004076 C 42.185666 120.004076 39.626216 119.451154 37.754789 118.34281 C 35.117779 116.816646 33.801776 114.467356 33.801776 111.29744 C 33.801776 109.195838 34.297154 106.924106 35.290411 104.479743 C 36.741517 106.045937 38.077535 107.144274 39.300968 107.774755 C 40.5244 108.402733 41.82289 108.717974 43.196437 108.717974 C 47.091906 108.717974 50.091692 106.313641 52.190792 101.499972 C 53.068962 99.553488 53.719458 97.346806 54.139778 94.882428 C 54.560098 92.420551 54.770259 90.003709 54.770259 87.636905 C 54.770259 83.128469 53.987162 79.615792 52.420968 77.093869 C 50.549541 74.154129 47.627314 72.683007 43.654286 72.683007 C 41.555186 72.683007 39.758817 72.81811 38.270182 73.085814 L 28.645346 118.000048 L 11.744964 118.000048 L 27.672104 43.35065 L 45.030335 41.058903 L 39.531143 67.068728 L 40.216666 67.068728 C 42.470884 67.068728 44.63003 66.515807 46.691601 65.407462 C 48.753172 64.299117 50.567055 62.790467 52.133249 60.881512 C 53.661914 59.010086 54.875339 56.948514 55.771021 54.694296 C 56.669206 52.440078 57.117047 50.22589 57.117047 48.049231 C 57.117047 46.36795 56.821822 44.774235 56.231372 43.265585 C 55.63842 41.756935 54.750243 40.428423 53.566841 39.282549 C 50.854774 36.68557 46.881746 35.38708 41.650258 35.38708 C 36.836589 35.38708 32.273111 36.417866 27.957321 38.481939 C 23.146154 40.811214 19.458343 43.961115 16.901395 47.934144 C 13.844064 52.555166 12.317901 57.884228 12.317901 63.918827 C 12.317901 66.438248 12.603118 68.387233 13.176055 69.76078 C 13.328671 70.25866 13.521318 70.696493 13.748992 71.079285 C 13.901608 71.346989 13.979167 71.614693 13.979167 71.882397 C 9.815994 71.882397 6.683606 71.051764 4.582005 69.390498 C 2.482905 67.729232 1.432104 64.969628 1.432104 61.111688 C 1.432104 55.765112 3.476162 50.666226 7.561776 45.815028 C 9.470731 43.523282 11.754972 41.411672 14.409495 39.485204 C 17.064018 37.556233 19.976238 35.88496 23.146154 34.471382 C 29.828748 31.491611 36.779045 30.002976 43.999549 30.002976 C 52.058191 30.002976 58.378008 31.911931 62.961502 35.732343 C 64.948016 37.411123 66.446658 39.370116 67.459931 41.604319 C 68.470701 43.838522 68.976086 46.195318 68.976086 48.679712 C 68.976086 52.385036 67.985331 55.820154 65.998817 58.99007 C 63.782127 62.50525 60.8599 65.274861 57.232135 67.298904 C 61.930716 68.139544 65.500938 70.411276 67.945301 74.1166 C 70.046902 77.361573 71.097703 81.392146 71.097703 86.203313 C 71.097703 88.189827 70.905057 90.386501 70.524767 92.793336 C 70.141975 95.197668 69.569038 97.584487 68.805957 99.953793 C 66.93453 105.835777 64.280007 110.436784 60.842387 113.759316 C 56.564126 117.922489 51.427711 120.004076 45.43064 120.004076 Z M 45.43064 120.004076 " stroke="#ffffff" stroke-width="2.933325" stroke-opacity="1" stroke-miterlimit="4"/><g fill="#ffffff" fill-opacity="1"><g transform="translate(112.973559, 268.300692)"><g><path d="M 0.265625 -2.09375 L 0.625 -2.09375 C 1.113281 -2.09375 1.359375 -2.3125 1.359375 -2.75 L 1.359375 -8.859375 C 1.359375 -9.304688 1.113281 -9.53125 0.625 -9.53125 L 0.265625 -9.53125 L 0.265625 -11.640625 L 6.71875 -11.640625 C 8.101562 -11.640625 9.179688 -11.320312 9.953125 -10.6875 C 10.722656 -10.050781 11.109375 -9.109375 11.109375 -7.859375 C 11.109375 -6.609375 10.71875 -5.644531 9.9375 -4.96875 C 9.15625 -4.289062 8.078125 -3.953125 6.703125 -3.953125 L 4.6875 -3.953125 L 4.6875 -2.75 C 4.6875 -2.3125 4.9375 -2.09375 5.4375 -2.09375 L 5.796875 -2.09375 L 5.796875 0 L 0.265625 0 Z M 6.265625 -6.0625 C 6.804688 -6.0625 7.203125 -6.203125 7.453125 -6.484375 C 7.703125 -6.773438 7.828125 -7.234375 7.828125 -7.859375 C 7.828125 -8.484375 7.707031 -8.914062 7.46875 -9.15625 C 7.226562 -9.40625 6.828125 -9.53125 6.265625 -9.53125 L 4.6875 -9.53125 L 4.6875 -6.0625 Z M 6.265625 -6.0625 "/></g></g></g><g fill="#ffffff" fill-opacity="1"><g transform="translate(124.358841, 268.300692)"><g><path d="M 5.25 0.28125 C 3.675781 0.28125 2.453125 -0.0976562 1.578125 -0.859375 C 0.703125 -1.628906 0.265625 -2.765625 0.265625 -4.265625 C 0.265625 -5.835938 0.671875 -7.003906 1.484375 -7.765625 C 2.304688 -8.523438 3.476562 -8.90625 5 -8.90625 C 6.488281 -8.90625 7.617188 -8.503906 8.390625 -7.703125 C 9.160156 -6.910156 9.546875 -5.847656 9.546875 -4.515625 L 9.546875 -3.65625 L 3.59375 -3.65625 C 3.59375 -2.9375 3.71875 -2.425781 3.96875 -2.125 C 4.226562 -1.820312 4.675781 -1.671875 5.3125 -1.671875 C 5.75 -1.671875 6.144531 -1.75 6.5 -1.90625 L 6.5 -2.625 L 9.25 -2.625 L 9.25 -1.03125 C 8.78125 -0.59375 8.226562 -0.265625 7.59375 -0.046875 C 6.957031 0.171875 6.175781 0.28125 5.25 0.28125 Z M 6.234375 -5.375 C 6.234375 -5.863281 6.117188 -6.242188 5.890625 -6.515625 C 5.660156 -6.785156 5.335938 -6.921875 4.921875 -6.921875 C 4.492188 -6.921875 4.164062 -6.785156 3.9375 -6.515625 C 3.707031 -6.242188 3.59375 -5.863281 3.59375 -5.375 Z M 6.234375 -5.375 "/></g></g></g><g fill="#ffffff" fill-opacity="1"><g transform="translate(134.179319, 268.300692)"><g><path d="M 0.265625 -2.125 L 0.46875 -2.125 C 0.957031 -2.125 1.203125 -2.351562 1.203125 -2.8125 L 1.203125 -5.828125 C 1.203125 -6.046875 1.148438 -6.210938 1.046875 -6.328125 C 0.953125 -6.453125 0.773438 -6.515625 0.515625 -6.515625 L 0.3125 -6.515625 L 0.3125 -8.625 L 4.015625 -8.625 L 4.203125 -7.765625 C 4.410156 -8.066406 4.707031 -8.285156 5.09375 -8.421875 C 5.488281 -8.554688 5.867188 -8.625 6.234375 -8.625 L 7.40625 -8.625 L 7.40625 -6.515625 L 5.71875 -6.515625 C 5.3125 -6.515625 5.019531 -6.414062 4.84375 -6.21875 C 4.675781 -6.03125 4.59375 -5.734375 4.59375 -5.328125 L 4.59375 -2.8125 C 4.59375 -2.582031 4.640625 -2.410156 4.734375 -2.296875 C 4.835938 -2.179688 5.007812 -2.125 5.25 -2.125 L 5.4375 -2.125 L 5.4375 0 L 0.265625 0 Z M 0.265625 -2.125 "/></g></g></g><g fill="#ffffff" fill-opacity="1"><g transform="translate(141.679572, 268.300692)"><g><path d="M 4.390625 0.265625 C 3.515625 0.265625 2.742188 0.175781 2.078125 0 C 1.421875 -0.1875 0.816406 -0.5 0.265625 -0.9375 L 0.265625 -2.53125 L 3.25 -2.53125 L 3.25 -1.984375 C 3.488281 -1.804688 3.789062 -1.71875 4.15625 -1.71875 C 4.71875 -1.71875 5 -1.898438 5 -2.265625 C 5 -2.472656 4.929688 -2.625 4.796875 -2.71875 C 4.671875 -2.820312 4.390625 -2.960938 3.953125 -3.140625 C 3.742188 -3.222656 3.382812 -3.378906 2.875 -3.609375 C 2.289062 -3.890625 1.828125 -4.132812 1.484375 -4.34375 C 1.148438 -4.550781 0.875 -4.8125 0.65625 -5.125 C 0.445312 -5.445312 0.34375 -5.84375 0.34375 -6.3125 C 0.34375 -7.164062 0.6875 -7.8125 1.375 -8.25 C 2.070312 -8.6875 3.019531 -8.90625 4.21875 -8.90625 C 5.03125 -8.90625 5.785156 -8.800781 6.484375 -8.59375 C 7.191406 -8.394531 7.8125 -8.085938 8.34375 -7.671875 L 8.34375 -6.1875 L 5.453125 -6.1875 L 5.453125 -6.625 C 5.203125 -6.800781 4.921875 -6.890625 4.609375 -6.890625 C 4.097656 -6.890625 3.84375 -6.695312 3.84375 -6.3125 C 3.84375 -6.132812 3.9375 -5.972656 4.125 -5.828125 C 4.3125 -5.679688 4.570312 -5.539062 4.90625 -5.40625 C 5.238281 -5.269531 5.585938 -5.132812 5.953125 -5 C 6.859375 -4.65625 7.507812 -4.285156 7.90625 -3.890625 C 8.300781 -3.503906 8.5 -2.960938 8.5 -2.265625 C 8.5 -0.578125 7.128906 0.265625 4.390625 0.265625 Z M 4.390625 0.265625 "/></g></g></g><g fill="#ffffff" fill-opacity="1"><g transform="translate(150.456847, 268.300692)"><g><path d="M 5.03125 0.265625 C 3.519531 0.265625 2.347656 -0.117188 1.515625 -0.890625 C 0.679688 -1.671875 0.265625 -2.8125 0.265625 -4.3125 C 0.265625 -5.820312 0.671875 -6.960938 1.484375 -7.734375 C 2.304688 -8.515625 3.488281 -8.90625 5.03125 -8.90625 C 6.570312 -8.90625 7.742188 -8.515625 8.546875 -7.734375 C 9.359375 -6.960938 9.765625 -5.820312 9.765625 -4.3125 C 9.765625 -2.8125 9.347656 -1.671875 8.515625 -0.890625 C 7.691406 -0.117188 6.53125 0.265625 5.03125 0.265625 Z M 5.03125 -1.875 C 5.5625 -1.875 5.929688 -2.0625 6.140625 -2.4375 C 6.347656 -2.8125 6.453125 -3.4375 6.453125 -4.3125 C 6.453125 -5.195312 6.347656 -5.828125 6.140625 -6.203125 C 5.929688 -6.578125 5.5625 -6.765625 5.03125 -6.765625 C 4.488281 -6.765625 4.113281 -6.582031 3.90625 -6.21875 C 3.707031 -5.851562 3.609375 -5.21875 3.609375 -4.3125 C 3.609375 -3.425781 3.707031 -2.796875 3.90625 -2.421875 C 4.113281 -2.054688 4.488281 -1.875 5.03125 -1.875 Z M 5.03125 -1.875 "/></g></g></g><g fill="#ffffff" fill-opacity="1"><g transform="translate(160.493167, 268.300692)"><g><path d="M 0.265625 -2.125 L 0.453125 -2.125 C 0.953125 -2.125 1.203125 -2.351562 1.203125 -2.8125 L 1.203125 -5.796875 C 1.203125 -6.242188 0.96875 -6.46875 0.5 -6.46875 L 0.265625 -6.46875 L 0.265625 -8.625 L 3.296875 -8.625 L 3.421875 -7.484375 C 4.203125 -8.429688 5.300781 -8.90625 6.71875 -8.90625 C 7.800781 -8.90625 8.59375 -8.644531 9.09375 -8.125 C 9.601562 -7.601562 9.859375 -6.84375 9.859375 -5.84375 L 9.859375 -2.8125 C 9.859375 -2.351562 10.101562 -2.125 10.59375 -2.125 L 10.9375 -2.125 L 10.9375 0 L 6.46875 0 L 6.46875 -5.828125 C 6.46875 -6.203125 6.390625 -6.472656 6.234375 -6.640625 C 6.078125 -6.804688 5.847656 -6.890625 5.546875 -6.890625 C 5.203125 -6.890625 4.953125 -6.804688 4.796875 -6.640625 C 4.640625 -6.484375 4.5625 -6.210938 4.5625 -5.828125 L 4.5625 -2.8125 C 4.5625 -2.582031 4.609375 -2.410156 4.703125 -2.296875 C 4.796875 -2.179688 4.953125 -2.125 5.171875 -2.125 L 5.40625 -2.125 L 5.40625 0 L 0.265625 0 Z M 0.265625 -2.125 "/></g></g></g><g fill="#ffffff" fill-opacity="1"><g transform="translate(171.518727, 268.300692)"><g><path d="M 3.296875 0.265625 C 2.222656 0.265625 1.421875 0.046875 0.890625 -0.390625 C 0.359375 -0.828125 0.09375 -1.4375 0.09375 -2.21875 C 0.09375 -3.113281 0.394531 -3.785156 1 -4.234375 C 1.601562 -4.679688 2.503906 -4.945312 3.703125 -5.03125 L 5.28125 -5.140625 L 5.28125 -6.09375 C 5.28125 -6.625 5.003906 -6.890625 4.453125 -6.890625 C 4.148438 -6.890625 3.882812 -6.769531 3.65625 -6.53125 L 3.65625 -5.9375 L 0.875 -5.9375 L 0.875 -7.84375 C 2.019531 -8.550781 3.273438 -8.90625 4.640625 -8.90625 C 5.972656 -8.90625 6.972656 -8.613281 7.640625 -8.03125 C 8.316406 -7.457031 8.65625 -6.691406 8.65625 -5.734375 L 8.65625 -2.640625 C 8.65625 -2.222656 8.84375 -2.015625 9.21875 -2.015625 L 9.4375 -2.015625 L 9.4375 0 L 6.875 0 L 6.59375 -1.203125 C 6.144531 -0.660156 5.679688 -0.28125 5.203125 -0.0625 C 4.722656 0.15625 4.085938 0.265625 3.296875 0.265625 Z M 4.046875 -1.75 C 4.867188 -1.75 5.28125 -2.117188 5.28125 -2.859375 L 5.28125 -3.46875 L 4.078125 -3.359375 C 3.429688 -3.316406 3.109375 -3.035156 3.109375 -2.515625 C 3.109375 -2.273438 3.1875 -2.085938 3.34375 -1.953125 C 3.507812 -1.816406 3.742188 -1.75 4.046875 -1.75 Z M 4.046875 -1.75 "/></g></g></g><g fill="#ffffff" fill-opacity="1"><g transform="translate(181.051422, 268.300692)"><g><path d="M 0.265625 -2.125 L 0.640625 -2.125 C 0.910156 -2.125 1.101562 -2.179688 1.21875 -2.296875 C 1.332031 -2.421875 1.390625 -2.601562 1.390625 -2.84375 L 1.390625 -9.078125 C 1.390625 -9.535156 1.140625 -9.765625 0.640625 -9.765625 L 0.265625 -9.765625 L 0.265625 -11.90625 L 4.765625 -11.90625 L 4.765625 -2.8125 C 4.765625 -2.351562 5.007812 -2.125 5.5 -2.125 L 5.875 -2.125 L 5.875 0 L 0.265625 0 Z M 0.265625 -2.125 "/></g></g></g></svg>